<svg xmlns="http://www.w3.org/2000/svg" width="611" height="463" viewBox="0 0 611 463">
    <g fill="none" fill-rule="evenodd">
        <path fill="#333" stroke="#FFF" stroke-width="3" d="M74.942 459.468l1.447-6.237a42.434 42.434 0 0 0 7.044 1.053l-.386 6.39-.418-.027a48.93 48.93 0 0 1-7.687-1.18zm15.457-5.479a28.204 28.204 0 0 0 6.616-1.852l2.46 5.908a34.474 34.474 0 0 1-8.11 2.272l-.966-6.328zm-30.506-.05l2.812-5.75a74.18 74.18 0 0 0 6.745 2.925v.001l-2.234 5.999a81.002 81.002 0 0 1-7.323-3.174zM48.6 447.486a40.425 40.425 0 0 0-2.144-1.293l3.123-5.585c.835.468 1.664.967 2.485 1.498 1.276.823 2.653 1.684 4.115 2.548l-3.246 5.514a122.676 122.676 0 0 1-4.333-2.682zM103 448.73c1.76-1.295 3.493-2.854 5.183-4.722v-.002l4.732 4.302c-1.961 2.168-4.013 4.022-6.134 5.583l-3.781-5.161zM2.419 436.26c1.428-.376 4.2-1.034 7.882-1.566l.908 6.337c-3.39.489-5.933 1.096-7.167 1.421l-1.622-6.191zm30.614 5.097l1.236-6.283c2.59.511 5.22 1.21 7.844 2.147l-2.146 6.031a48.341 48.341 0 0 0-6.934-1.895zm-14.781-7.41a73.234 73.234 0 0 1 8.017.087l-.43 6.389a66.515 66.515 0 0 0-7.313-.078l-.274-6.398zm94.286 4.374a61.87 61.87 0 0 0 3.608-6.336l5.718 2.853a67.88 67.88 0 0 1-3.984 6.992l-5.342-3.51zm6.58-13.096c.852-2.19 1.667-4.534 2.444-7.037v-.001l6.102 1.898a113.345 113.345 0 0 1-2.594 7.465l-5.952-2.325zm4.454-14.26c.429-1.724.842-3.512 1.237-5.363.109-.514.228-1.165.358-1.911l6.295 1.089a58.025 58.025 0 0 1-.406 2.155 166.697 166.697 0 0 1-1.286 5.58l-6.198-1.55zm2.91-14.916c.471-2.479 1.05-5.143 1.806-7.778l6.14 1.765c-.679 2.368-1.221 4.851-1.67 7.21l-6.276-1.197zm43.787-1.295l2.886-5.713c2.167 1.1 4.344 1.94 6.394 2.373l-1.324 6.263c-2.766-.588-5.427-1.642-7.956-2.923zm15.356-3.377c1.723-.483 3.362-1.398 5.017-3.092l4.577 4.467c-2.355 2.432-5.073 4.024-7.897 4.797l-1.697-6.172zm-28.59-5.618l4.023-4.976c1.78 1.448 3.788 3.02 5.923 4.506l-3.648 5.258c-2.325-1.62-4.452-3.289-6.298-4.788zm-25.781-5.25c1.444-2.79 3.289-5.33 5.918-7.066l3.494 5.357c-1.298.839-2.611 2.445-3.736 4.645l-5.676-2.936zm63.114 2.278c.913-1.848 1.775-4.053 2.555-6.656l6.118 1.842c-.867 2.891-1.85 5.43-2.949 7.653l-5.724-2.839zm-48.896-4.637l1.552-6.21c2.53.637 5.128 1.937 7.897 3.919l-3.717 5.208c-2.298-1.65-4.222-2.54-5.732-2.917zm53.177-9.164c.433-2.253.819-4.705 1.148-7.372l6.34.785a117.7 117.7 0 0 1-1.215 7.8l-6.273-1.213zm1.877-14.859l.054-.755c.15-2.157.272-4.42.36-6.797l6.384.235a213.13 213.13 0 0 1-.37 7.007c-.019.262-.037.523-.057.783l-6.371-.473zm.54-22.743l6.388-.11c.044 2.689.056 5.274.038 7.761l-6.389-.047c.02-2.432.007-4.965-.037-7.604zm0-.001v.001-.001zm-.549-15.236l6.38-.345c.142 2.656.258 5.233.35 7.728l-6.385.237c-.09-2.459-.203-4.998-.345-7.62zm17.675.787l.631-6.372c2.467.247 4.987.463 7.551.645h.002l-.454 6.386a274.053 274.053 0 0 1-7.73-.659zm15.743-5.303c2.492.103 5.016.168 7.562.19l-.058 6.402c-2.618-.024-5.21-.09-7.767-.194l.263-6.398zm-31.125 3.362l.963-6.33c.991.15 1.999.3 3.02.445l-4.203-1.587a347.23 347.23 0 0 0 2.605-7.167l6.027 2.124a364.952 364.952 0 0 1-2.503 6.897c.847.115 1.703.227 2.568.336l-.8 6.353a306.346 306.346 0 0 1-7.677-1.071zm46.244-3.234c2.502-.063 5.019-.172 7.54-.332h.001l.4 6.39c-2.605.165-5.2.277-7.78.342l-.161-6.4zm-61.504.511l1.28-6.273c2.321.475 4.814.954 7.456 1.427h-.002l-1.12 6.302a303.65 303.65 0 0 1-7.614-1.456zm76.556-1.47c1.483-.154 2.966-.327 4.448-.521.1-.019.316-.059.654-.125.488-.098 1.215-.246 2.153-.45v.001l1.352 6.257c-1.959.424-3.063.624-3.096.63l-.07.014-.082.01c-1.567.205-3.134.39-4.7.554l-.659-6.37zm-91.676-2.048l1.63-6.19c1.917.506 4.396 1.133 7.356 1.82l-1.441 6.237a250.773 250.773 0 0 1-7.545-1.867zm-14.92-3.928l1.81-6.141c2.289.677 4.7 1.32 7.239 1.924h.002l-1.48 6.229a145.96 145.96 0 0 1-7.571-2.012zm121.215 3.116a218.284 218.284 0 0 0 7.3-2.033l1.813 6.14c-2.748.816-5.274 1.509-7.513 2.092l-1.6-6.199zm-136.01-8.622l2.694-5.807a89.677 89.677 0 0 0 6.835 2.833v.002l-2.209 6.007a96.526 96.526 0 0 1-7.32-3.035zm38.7 5.063h.001zm111.836-.753a218.837 218.837 0 0 0 7.139-2.526v.002l2.23 5.997c-2.53.946-4.99 1.81-7.35 2.6l-2.019-6.073zM128.997 290.97l3.998-4.995a53.47 53.47 0 0 0 5.937 4.115l-3.286 5.49a59.74 59.74 0 0 1-6.65-4.61zm178.428 7.352a185.405 185.405 0 0 0 6.908-3.05l2.694 5.805a189.26 189.26 0 0 1-7.148 3.154l-2.454-5.909zm-168.493-8.232l.001-.002v.002zm68.717 3.042a368.816 368.816 0 0 0 2.303-7.267l6.108 1.871c-.79 2.595-1.58 5.071-2.343 7.396l-6.068-2zm-89.417-14.617l5.577-3.125a33.019 33.019 0 0 0 4.04 5.69l-4.798 4.228a39.334 39.334 0 0 1-4.82-6.793zm202.857 13.42a148.136 148.136 0 0 0 6.573-3.652l3.24 5.516c-2.269 1.34-4.56 2.609-6.856 3.81l-2.957-5.675zm12.924-7.649a113.3 113.3 0 0 0 6.062-4.361l3.899 5.07a118.244 118.244 0 0 1-6.407 4.61l-3.554-5.319zm-121.918-5.731a310.05 310.05 0 0 0 1.968-7.351l6.19 1.579a311.428 311.428 0 0 1-2.009 7.504l-6.149-1.732zm-98.452-16.052l6.378-.357c.13 2.312.495 4.603 1.136 6.857v.002l-6.143 1.756a37.772 37.772 0 0 1-1.37-8.258zm232.135 12.664a83.465 83.465 0 0 0 5.264-5.18l.002.001 4.675 4.36a90.022 90.022 0 0 1-5.665 5.575l-4.276-4.756zm-129.946-11.352c.552-2.458 1.07-4.94 1.541-7.426l6.277 1.195a235.13 235.13 0 0 1-1.585 7.633l-6.233-1.402zm-101.84-9.582a53.308 53.308 0 0 1 1.73-7.983l6.124 1.818a46.92 46.92 0 0 0-1.524 7.02l-6.33-.855zm241.774 10.137a64.075 64.075 0 0 0 4.068-6.06l5.5 3.255a70.287 70.287 0 0 1-4.476 6.67l-5.092-3.865zm-137.12-15.438c.376-2.512.693-5.009.942-7.471l6.356.643c-.26 2.576-.591 5.172-.981 7.776l-6.318-.948zm-100.144-10.266a76.737 76.737 0 0 1 3.593-7.161l5.555 3.163a70.538 70.538 0 0 0-3.296 6.563l-5.852-2.565zm54.511 4.395c-2.656-.72-4.974-1.756-6.944-3.084l3.569-5.313c1.316.888 2.972 1.654 5.041 2.215.307.082.603.155.884.215l-1.33 6.261a21.83 21.83 0 0 1-1.22-.294zm7.511-6.433c.999-.654 2.05-2.035 2.92-4.628l6.055 2.043c-1.125 3.34-2.79 6.14-5.44 7.918l-3.535-5.333zm182.607 15.204a54.405 54.405 0 0 0 2.418-6.815l6.15 1.733a60.575 60.575 0 0 1-2.705 7.618l-5.863-2.536zm-204.876-27.787l6.386.16c-.055 2.256.326 4.288 1.143 6.032l-5.784 2.72c-1.305-2.789-1.823-5.84-1.745-8.912zm-31.896.713a85.916 85.916 0 0 1 2.202-3.006 37.085 37.085 0 0 1 2.931-3.381l4.559 4.484c-.843.86-1.652 1.79-2.425 2.799a77.283 77.283 0 0 0-2.036 2.78l-5.23-3.676zm93.775 1.806l6.383-.264a98.883 98.883 0 0 1-.01 7.942l-6.385-.253a92.13 92.13 0 0 0 .012-7.425zm-39.608-5.118l4.424-4.62c2.302 2.216 4.083 4.806 4.98 7.737l-6.11 1.872c-.495-1.635-1.595-3.355-3.294-4.989zm187.292 16.045c.623-1.822 1.441-4.265 2.4-7.25l6.08 1.958a421.493 421.493 0 0 1-2.435 7.365l-6.045-2.073zm-187.293-16.045v.002-.002zm-42.482-8.348a36.363 36.363 0 0 1 7.583-3.59l2.052 6.064a29.9 29.9 0 0 0-6.254 2.956l-3.381-5.43zm21.794 2.477c.196-.579.408-1.156.636-1.73a36.505 36.505 0 0 0-5.982.2l-.74-6.358a42.87 42.87 0 0 1 8.267-.158l-.262 3.453a39.7 39.7 0 0 1 1.648-2.983l5.454 3.333c-1.25 2.048-2.257 4.185-2.97 6.296l-6.05-2.053zm8.65-.47l1.67-6.18c2.769.75 5.385 1.757 7.772 2.985l-2.92 5.696c-1.96-1.01-4.165-1.862-6.522-2.5zm49.345-2.794l6.07-1.994c.826 2.525 1.435 5.196 1.863 7.981l-6.313.978c-.384-2.492-.921-4.827-1.62-6.965zm154.66 10.634c.69-2.268 1.418-4.718 2.17-7.33l6.138 1.776c-.76 2.642-1.496 5.12-2.195 7.419l-6.113-1.865zm52.695 4.383l-.531-.104 1.244-6.282c.176.036.353.07.526.106 0-.002.119.023.41.073.292.05.735.123 1.315.206 1.157.167 2.859.379 4.982.548l-.51 6.383c-4.547-.364-7.336-.909-7.436-.93zm15.362-5.159c2.293.003 4.785-.079 7.41-.288l.504 6.382a99.047 99.047 0 0 1-7.921.31l.007-6.404zm-30.954 1.927l1.35-6.257c2.456.533 4.947 1.06 7.47 1.583v.001l-1.296 6.27a801.134 801.134 0 0 1-7.524-1.597zm45.701-3.116a75.616 75.616 0 0 0 7.194-1.561v.002l1.655 6.182a83.269 83.269 0 0 1-7.796 1.692l-1.053-6.315zm-60.713-.28l1.47-6.23c2.443.577 4.921 1.15 7.436 1.72l-1.407 6.244a788.92 788.92 0 0 1-7.499-1.733zM168.41 201.37c1.905-2.058 4.019-3.92 6.303-5.497l3.623 5.271c-1.865 1.288-3.636 2.842-5.243 4.578l-4.683-4.353zm211.229 15.633l1.6-6.198c2.426.628 4.892 1.252 7.395 1.872l-1.531 6.215a685.68 685.68 0 0 1-7.464-1.889zM210.65 201.095l4.02-4.976c2.273 1.843 4.17 4.06 5.717 6.533l-5.415 3.4c-1.212-1.94-2.64-3.59-4.322-4.957zm258.796 16.047a60.538 60.538 0 0 0 6.615-3.04v-.002l3.012 5.647a66.752 66.752 0 0 1-7.313 3.363l-2.314-5.968zm-104.674-4.18l1.75-6.158c2.406.686 4.855 1.368 7.346 2.044l-1.675 6.18a616.385 616.385 0 0 1-7.421-2.067zm-14.767-4.432l1.924-6.108c2.38.752 4.806 1.5 7.279 2.243l-1.834 6.133c-2.502-.75-4.96-1.507-7.37-2.268zm38.628 4.147v-.002.002zM182.33 192.008a25.357 25.357 0 0 1 3.376-.878 62.371 62.371 0 0 1 4.811-.712l.675 6.368a55.749 55.749 0 0 0-4.319.639c-.842.156-1.686.376-2.525.657l-2.018-6.074zm15.946 4.612h.001l.464-6.386c3.012.218 5.783.777 8.309 1.663l-2.111 6.044c-1.944-.682-4.15-1.139-6.663-1.321zm178.452 11.635a532.644 532.644 0 0 0 1.965-7.39l6.185 1.605a583.67 583.67 0 0 1-1.986 7.475l-6.164-1.69zm-41.361-4.61l2.122-6.04c2.348.828 4.746 1.65 7.197 2.468l-2.018 6.075c-2.486-.829-4.92-1.663-7.301-2.503zm146.847 6.627a52.694 52.694 0 0 0 5.567-4.605l4.396 4.645a58.957 58.957 0 0 1-6.243 5.163l-3.72-5.203zm-161.318-12.038l2.355-5.951c2.305.914 4.668 1.824 7.09 2.729l-2.233 6a384.907 384.907 0 0 1-7.212-2.778zm-14.248-6.037l2.631-5.834a308.455 308.455 0 0 0 6.948 3.04l-2.488 5.897a306.728 306.728 0 0 1-7.091-3.103zm186.02 8.144a55.82 55.82 0 0 0 4.147-5.95l5.461 3.321a62.473 62.473 0 0 1-4.62 6.631l-4.987-4.002zm-199.963-14.936l2.966-5.67a251.116 251.116 0 0 0 6.751 3.41l-2.79 5.76a247.755 247.755 0 0 1-6.927-3.5zm87.849 8.046c.59-2.419 1.176-4.9 1.755-7.438l6.228 1.426c-.586 2.57-1.18 5.08-1.777 7.53l-6.206-1.518zM279.198 177.69l3.375-5.437a194.114 194.114 0 0 0 6.473 3.859l-3.16 5.565a196.358 196.358 0 0 1-6.688-3.987zm-12.865-8.868l3.883-5.086a144.986 144.986 0 0 0 6.067 4.402l-3.616 5.279a152.848 152.848 0 0 1-6.334-4.595zm117.623 9.729c.523-2.454 1.034-4.95 1.53-7.483h.002l6.268 1.235a496.413 496.413 0 0 1-1.552 7.581l-6.248-1.333zm-129.492-20.04l4.504-4.545a106.873 106.873 0 0 0 5.454 5.056l-4.177 4.845a113.721 113.721 0 0 1-5.78-5.357zM386.9 163.56c.445-2.48.874-4.99 1.283-7.524l6.307 1.024a455.7 455.7 0 0 1-1.303 7.632l-6.287-1.132zm-142.707-17.138l5.223-3.689a78.385 78.385 0 0 0 4.517 5.809l-4.855 4.163a84.521 84.521 0 0 1-4.885-6.283zm-7.708-14.056l5.926-2.392a59.53 59.53 0 0 0 3.123 6.564l-5.591 3.099a65.981 65.981 0 0 1-3.458-7.271zm152.849 16.129a397.33 397.33 0 0 0 1.007-7.56l6.34.783c-.317 2.577-.659 5.14-1.022 7.683l-6.325-.906zm-156.801-31.804l6.35-.696a51.757 51.757 0 0 0 1.282 7.103l-6.193 1.578a58.104 58.104 0 0 1-1.44-7.985zm158.661 16.67c.257-2.523.488-5.055.689-7.59v-.002l6.368.506a333.637 333.637 0 0 1-.702 7.736l-6.355-.65zm-68.753-11.171l.89-6.34c.134.02.267.033.401.042 1.502.105 3.065-.376 4.574-1.416l3.634 5.265c-2.455 1.704-5.455 2.76-8.655 2.538-.28-.02-.563-.05-.844-.09zm-13.1-11.969l5.81-2.664c1.14 2.497 2.362 4.314 3.542 5.58l-4.672 4.369c-1.75-1.882-3.312-4.29-4.68-7.285zm-77.004-4.01c.135-1.932.361-3.83.664-5.688l6.305 1.032a56.037 56.037 0 0 0-.702 7.221l-6.385-.194c.024-.796.064-1.587.118-2.37zm160.37 4.373l6.385.177c-.072 2.587-.18 5.176-.321 7.764l-6.38-.347c.14-2.534.244-5.067.315-7.594zm-60.55-.691c.38-.777.678-1.59.88-2.4.22-.899.37-1.874.442-2.919.019-.263.033-.533.041-.805l6.385.2c-.01.353-.028.702-.053 1.051a23.715 23.715 0 0 1-.614 4.006 18.403 18.403 0 0 1-1.347 3.687l-5.734-2.82zm-27.21-15.213l6.302-1.05c.444 2.673.962 5.064 1.537 7.19l-6.167 1.677c-.638-2.358-1.199-4.956-1.672-7.817zm-70.163-2.022a74.941 74.941 0 0 1 2.65-7.573l5.909 2.434a68.364 68.364 0 0 0-2.423 6.922v.001l-6.136-1.784zm157.896 2.759l6.385-.217c.085 2.586.13 5.182.132 7.785l-6.389.01a234.748 234.748 0 0 0-.128-7.578zm-61.863-5.416l5.98-2.255c.995 2.649 1.773 5.275 2.306 7.841l-6.256 1.305c-.457-2.2-1.14-4.519-2.03-6.89zm-27.418-10.976l6.382-.289c.12 2.666.295 5.163.518 7.499l-6.36.613a155.333 155.333 0 0 1-.54-7.823zm-62.577-1.17a92.316 92.316 0 0 1 4.01-6.872l5.373 3.464a85.694 85.694 0 0 0-3.734 6.394l-5.65-2.987zm150.807 2.475l6.351-.697c.28 2.574.508 5.17.688 7.78l-6.373.444c-.174-2.53-.396-5.042-.666-7.527zm-67.505-3.34l5.34-3.515a78.05 78.05 0 0 1 4.046 6.912l-5.672 2.949a72.123 72.123 0 0 0-3.714-6.345zm-74.74-12.506a101.438 101.438 0 0 1 2.952-3.694 64.73 64.73 0 0 1 2.16-2.446l4.675 4.359a60.688 60.688 0 0 0-1.946 2.208 93.982 93.982 0 0 0-2.761 3.455l-5.08-3.882zm53.91-1.044l6.388.168a242.04 242.04 0 0 0-.085 7.576l-6.388.037c-.013-2.48.015-5.073.085-7.781zm6.303 7.744v0zm5.298-5.644l4.542-4.504a79.376 79.376 0 0 1 5.327 5.977l-4.974 4.022a72.617 72.617 0 0 0-4.895-5.495zm74.435-.094l6.257-1.289c.521 2.543.98 5.117 1.38 7.72l-6.315.975a153.033 153.033 0 0 0-1.322-7.406zM260.44 52.787c2.258-1.806 4.56-3.32 6.892-4.551l2.98 5.662c-1.96 1.036-3.926 2.322-5.889 3.893l-3.983-5.005zm43.125 3.634l.466-.762-.388-.026.017-.24c.185-2.65.433-5.176.738-7.587l6.339.805c-.186 1.47-.35 2.99-.492 4.563a64.666 64.666 0 0 1 3.248 2.468l-4.014 4.982a56.11 56.11 0 0 0-5.914-4.203zm-13.092-5.381v-.002l1.294-6.27a43.32 43.32 0 0 1 7.885 2.46l-2.455 5.912a36.905 36.905 0 0 0-6.724-2.1zm-15.357-5.876a34.98 34.98 0 0 1 8.33-1.179l.129 6.401a28.621 28.621 0 0 0-6.815.965l-1.644-6.187zm110.38 5.807l6.061-2.022c.821 2.474 1.568 4.995 2.243 7.555l-6.178 1.636a118.07 118.07 0 0 0-2.126-7.169zm-73.567-9.706h.002-.002zm-6.262-1.266a85.509 85.509 0 0 1 1.924-7.738l6.116 1.848a79.137 79.137 0 0 0-1.778 7.156l-6.262-1.266zm74.144-2.76l5.69-2.908a99.467 99.467 0 0 1 3.308 7.206l-5.904 2.448a93.856 93.856 0 0 0-3.094-6.746zm-63.605-9.961l-5.841-2.588c1.176-2.668 2.477-5.064 3.883-7.21l5.34 3.514c-1.2 1.831-2.335 3.914-3.38 6.284h-.002zm55.778-2.526l5.065-3.905a82.635 82.635 0 0 1 4.544 6.556l-5.415 3.4a76.166 76.166 0 0 0-4.194-6.05zm-10.067-10.626l4.139-4.877a74.928 74.928 0 0 1 5.805 5.512l-4.636 4.408a68.64 68.64 0 0 0-5.308-5.043zm-42.402-3.111a32.726 32.726 0 0 1 6.749-5.115l3.151 5.568a26.317 26.317 0 0 0-5.432 4.124l-4.468-4.577zm30.025-2.318h-.002l1.202-6.29a43.173 43.173 0 0 1 7.944 2.32l-2.388 5.94a36.724 36.724 0 0 0-6.756-1.97zm-15.4-5.967a35.53 35.53 0 0 1 8.338-1.075l.075 6.404c-2.246.026-4.55.291-6.836.875L334.14 2.73z"/>
        <path fill="#333" stroke="#FFF" stroke-width="3" d="M74.942 459.468l1.447-6.237a42.434 42.434 0 0 0 7.044 1.053l-.386 6.39-.418-.027a48.93 48.93 0 0 1-7.687-1.18zm15.457-5.479a28.204 28.204 0 0 0 6.616-1.852l2.46 5.908a34.474 34.474 0 0 1-8.11 2.272l-.966-6.328zm-30.506-.05l2.812-5.75a74.18 74.18 0 0 0 6.745 2.925v.001l-2.234 5.999a81.002 81.002 0 0 1-7.323-3.174zM48.6 447.486a40.425 40.425 0 0 0-2.144-1.293l3.123-5.585c.835.468 1.664.967 2.485 1.498 1.276.823 2.653 1.684 4.115 2.548l-3.246 5.514a122.676 122.676 0 0 1-4.333-2.682zM103 448.73c1.76-1.295 3.493-2.854 5.183-4.722v-.002l4.732 4.302c-1.961 2.168-4.013 4.022-6.134 5.583l-3.781-5.161zM2.419 436.26c1.428-.376 4.2-1.034 7.882-1.566l.908 6.337c-3.39.489-5.933 1.096-7.167 1.421l-1.622-6.191zm30.614 5.097l1.236-6.283c2.59.511 5.22 1.21 7.844 2.147l-2.146 6.031a48.341 48.341 0 0 0-6.934-1.895zm-14.781-7.41a73.234 73.234 0 0 1 8.017.087l-.43 6.389a66.515 66.515 0 0 0-7.313-.078l-.274-6.398zm94.286 4.374a61.87 61.87 0 0 0 3.608-6.336l5.718 2.853a67.88 67.88 0 0 1-3.984 6.992l-5.342-3.51zm6.58-13.096c.852-2.19 1.667-4.534 2.444-7.037v-.001l6.102 1.898a113.345 113.345 0 0 1-2.594 7.465l-5.952-2.325zm4.454-14.26c.429-1.724.842-3.512 1.237-5.363.109-.514.228-1.165.358-1.911l6.295 1.089a58.025 58.025 0 0 1-.406 2.155 166.697 166.697 0 0 1-1.286 5.58l-6.198-1.55zm2.91-14.916c.471-2.479 1.05-5.143 1.806-7.778l6.14 1.765c-.679 2.368-1.221 4.851-1.67 7.21l-6.276-1.197zm43.787-1.295l2.886-5.713c2.167 1.1 4.344 1.94 6.394 2.373l-1.324 6.263c-2.766-.588-5.427-1.642-7.956-2.923zm15.356-3.377c1.723-.483 3.362-1.398 5.017-3.092l4.577 4.467c-2.355 2.432-5.073 4.024-7.897 4.797l-1.697-6.172zm-28.59-5.618l4.023-4.976c1.78 1.448 3.788 3.02 5.923 4.506l-3.648 5.258c-2.325-1.62-4.452-3.289-6.298-4.788zm-25.781-5.25c1.444-2.79 3.289-5.33 5.918-7.066l3.494 5.357c-1.298.839-2.611 2.445-3.736 4.645l-5.676-2.936zm63.114 2.278c.913-1.848 1.775-4.053 2.555-6.656l6.118 1.842c-.867 2.891-1.85 5.43-2.949 7.653l-5.724-2.839zm-48.896-4.637l1.552-6.21c2.53.637 5.128 1.937 7.897 3.919l-3.717 5.208c-2.298-1.65-4.222-2.54-5.732-2.917zm53.177-9.164c.433-2.253.819-4.705 1.148-7.372l6.34.785a117.7 117.7 0 0 1-1.215 7.8l-6.273-1.213zm1.877-14.859l.054-.755c.15-2.157.272-4.42.36-6.797l6.384.235a213.13 213.13 0 0 1-.37 7.007c-.019.262-.037.523-.057.783l-6.371-.473zm.54-22.743l6.388-.11c.044 2.689.056 5.274.038 7.761l-6.389-.047c.02-2.432.007-4.965-.037-7.604zm0-.001v.001-.001zm-.549-15.236l6.38-.345c.142 2.656.258 5.233.35 7.728l-6.385.237c-.09-2.459-.203-4.998-.345-7.62zm17.675.787l.631-6.372c2.467.247 4.987.463 7.551.645h.002l-.454 6.386a274.053 274.053 0 0 1-7.73-.659zm15.743-5.303c2.492.103 5.016.168 7.562.19l-.058 6.402c-2.618-.024-5.21-.09-7.767-.194l.263-6.398zm-31.125 3.362l.963-6.33c.991.15 1.999.3 3.02.445l-4.203-1.587a347.23 347.23 0 0 0 2.605-7.167l6.027 2.124a364.952 364.952 0 0 1-2.503 6.897c.847.115 1.703.227 2.568.336l-.8 6.353a306.346 306.346 0 0 1-7.677-1.071zm46.244-3.234c2.502-.063 5.019-.172 7.54-.332h.001l.4 6.39c-2.605.165-5.2.277-7.78.342l-.161-6.4zm-61.504.511l1.28-6.273c2.321.475 4.814.954 7.456 1.427h-.002l-1.12 6.302a303.65 303.65 0 0 1-7.614-1.456zm76.556-1.47c1.483-.154 2.966-.327 4.448-.521.1-.019.316-.059.654-.125.488-.098 1.215-.246 2.153-.45v.001l1.352 6.257c-1.959.424-3.063.624-3.096.63l-.07.014-.082.01c-1.567.205-3.134.39-4.7.554l-.659-6.37zm-91.676-2.048l1.63-6.19c1.917.506 4.396 1.133 7.356 1.82l-1.441 6.237a250.773 250.773 0 0 1-7.545-1.867zm-14.92-3.928l1.81-6.141c2.289.677 4.7 1.32 7.239 1.924h.002l-1.48 6.229a145.96 145.96 0 0 1-7.571-2.012zm121.215 3.116a218.284 218.284 0 0 0 7.3-2.033l1.813 6.14c-2.748.816-5.274 1.509-7.513 2.092l-1.6-6.199zm-136.01-8.622l2.694-5.807a89.677 89.677 0 0 0 6.835 2.833v.002l-2.209 6.007a96.526 96.526 0 0 1-7.32-3.035zm38.7 5.063h.001zm111.836-.753a218.837 218.837 0 0 0 7.139-2.526v.002l2.23 5.997c-2.53.946-4.99 1.81-7.35 2.6l-2.019-6.073zM128.997 290.97l3.998-4.995a53.47 53.47 0 0 0 5.937 4.115l-3.286 5.49a59.74 59.74 0 0 1-6.65-4.61zm178.428 7.352a185.405 185.405 0 0 0 6.908-3.05l2.694 5.805a189.26 189.26 0 0 1-7.148 3.154l-2.454-5.909zm-168.493-8.232l.001-.002v.002zm68.717 3.042a368.816 368.816 0 0 0 2.303-7.267l6.108 1.871c-.79 2.595-1.58 5.071-2.343 7.396l-6.068-2zm-89.417-14.617l5.577-3.125a33.019 33.019 0 0 0 4.04 5.69l-4.798 4.228a39.334 39.334 0 0 1-4.82-6.793zm202.857 13.42a148.136 148.136 0 0 0 6.573-3.652l3.24 5.516c-2.269 1.34-4.56 2.609-6.856 3.81l-2.957-5.675zm12.924-7.649a113.3 113.3 0 0 0 6.062-4.361l3.899 5.07a118.244 118.244 0 0 1-6.407 4.61l-3.554-5.319zm-121.918-5.731a310.05 310.05 0 0 0 1.968-7.351l6.19 1.579a311.428 311.428 0 0 1-2.009 7.504l-6.149-1.732zm-98.452-16.052l6.378-.357c.13 2.312.495 4.603 1.136 6.857v.002l-6.143 1.756a37.772 37.772 0 0 1-1.37-8.258zm232.135 12.664a83.465 83.465 0 0 0 5.264-5.18l.002.001 4.675 4.36a90.022 90.022 0 0 1-5.665 5.575l-4.276-4.756zm-129.946-11.352c.552-2.458 1.07-4.94 1.541-7.426l6.277 1.195a235.13 235.13 0 0 1-1.585 7.633l-6.233-1.402zm-101.84-9.582a53.308 53.308 0 0 1 1.73-7.983l6.124 1.818a46.92 46.92 0 0 0-1.524 7.02l-6.33-.855zm241.774 10.137a64.075 64.075 0 0 0 4.068-6.06l5.5 3.255a70.287 70.287 0 0 1-4.476 6.67l-5.092-3.865zm-137.12-15.438c.376-2.512.693-5.009.942-7.471l6.356.643c-.26 2.576-.591 5.172-.981 7.776l-6.318-.948zm-100.144-10.266a76.737 76.737 0 0 1 3.593-7.161l5.555 3.163a70.538 70.538 0 0 0-3.296 6.563l-5.852-2.565zm54.511 4.395c-2.656-.72-4.974-1.756-6.944-3.084l3.569-5.313c1.316.888 2.972 1.654 5.041 2.215.307.082.603.155.884.215l-1.33 6.261a21.83 21.83 0 0 1-1.22-.294zm7.511-6.433c.999-.654 2.05-2.035 2.92-4.628l6.055 2.043c-1.125 3.34-2.79 6.14-5.44 7.918l-3.535-5.333zm182.607 15.204a54.405 54.405 0 0 0 2.418-6.815l6.15 1.733a60.575 60.575 0 0 1-2.705 7.618l-5.863-2.536zm-204.876-27.787l6.386.16c-.055 2.256.326 4.288 1.143 6.032l-5.784 2.72c-1.305-2.789-1.823-5.84-1.745-8.912zm-31.896.713a85.916 85.916 0 0 1 2.202-3.006 37.085 37.085 0 0 1 2.931-3.381l4.559 4.484c-.843.86-1.652 1.79-2.425 2.799a77.283 77.283 0 0 0-2.036 2.78l-5.23-3.676zm93.775 1.806l6.383-.264a98.883 98.883 0 0 1-.01 7.942l-6.385-.253a92.13 92.13 0 0 0 .012-7.425zm-39.608-5.118l4.424-4.62c2.302 2.216 4.083 4.806 4.98 7.737l-6.11 1.872c-.495-1.635-1.595-3.355-3.294-4.989zm187.292 16.045c.623-1.822 1.441-4.265 2.4-7.25l6.08 1.958a421.493 421.493 0 0 1-2.435 7.365l-6.045-2.073zm-187.293-16.045v.002-.002zm-42.482-8.348a36.363 36.363 0 0 1 7.583-3.59l2.052 6.064a29.9 29.9 0 0 0-6.254 2.956l-3.381-5.43zm21.794 2.477c.196-.579.408-1.156.636-1.73a36.505 36.505 0 0 0-5.982.2l-.74-6.358a42.87 42.87 0 0 1 8.267-.158l-.262 3.453a39.7 39.7 0 0 1 1.648-2.983l5.454 3.333c-1.25 2.048-2.257 4.185-2.97 6.296l-6.05-2.053zm8.65-.47l1.67-6.18c2.769.75 5.385 1.757 7.772 2.985l-2.92 5.696c-1.96-1.01-4.165-1.862-6.522-2.5zm49.345-2.794l6.07-1.994c.826 2.525 1.435 5.196 1.863 7.981l-6.313.978c-.384-2.492-.921-4.827-1.62-6.965zm154.66 10.634c.69-2.268 1.418-4.718 2.17-7.33l6.138 1.776c-.76 2.642-1.496 5.12-2.195 7.419l-6.113-1.865zm52.695 4.383l-.531-.104 1.244-6.282c.176.036.353.07.526.106 0-.002.119.023.41.073.292.05.735.123 1.315.206 1.157.167 2.859.379 4.982.548l-.51 6.383c-4.547-.364-7.336-.909-7.436-.93zm15.362-5.159c2.293.003 4.785-.079 7.41-.288l.504 6.382a99.047 99.047 0 0 1-7.921.31l.007-6.404zm-30.954 1.927l1.35-6.257c2.456.533 4.947 1.06 7.47 1.583v.001l-1.296 6.27a801.134 801.134 0 0 1-7.524-1.597zm45.701-3.116a75.616 75.616 0 0 0 7.194-1.561v.002l1.655 6.182a83.269 83.269 0 0 1-7.796 1.692l-1.053-6.315zm-60.713-.28l1.47-6.23c2.443.577 4.921 1.15 7.436 1.72l-1.407 6.244a788.92 788.92 0 0 1-7.499-1.733zM168.41 201.37c1.905-2.058 4.019-3.92 6.303-5.497l3.623 5.271c-1.865 1.288-3.636 2.842-5.243 4.578l-4.683-4.353zm211.229 15.633l1.6-6.198c2.426.628 4.892 1.252 7.395 1.872l-1.531 6.215a685.68 685.68 0 0 1-7.464-1.889zM210.65 201.095l4.02-4.976c2.273 1.843 4.17 4.06 5.717 6.533l-5.415 3.4c-1.212-1.94-2.64-3.59-4.322-4.957zm258.796 16.047a60.538 60.538 0 0 0 6.615-3.04v-.002l3.012 5.647a66.752 66.752 0 0 1-7.313 3.363l-2.314-5.968zm-104.674-4.18l1.75-6.158c2.406.686 4.855 1.368 7.346 2.044l-1.675 6.18a616.385 616.385 0 0 1-7.421-2.067zm-14.767-4.432l1.924-6.108c2.38.752 4.806 1.5 7.279 2.243l-1.834 6.133c-2.502-.75-4.96-1.507-7.37-2.268zm38.628 4.147v-.002.002zM182.33 192.008a25.357 25.357 0 0 1 3.376-.878 62.371 62.371 0 0 1 4.811-.712l.675 6.368a55.749 55.749 0 0 0-4.319.639c-.842.156-1.686.376-2.525.657l-2.018-6.074zm15.946 4.612h.001l.464-6.386c3.012.218 5.783.777 8.309 1.663l-2.111 6.044c-1.944-.682-4.15-1.139-6.663-1.321zm178.452 11.635a532.644 532.644 0 0 0 1.965-7.39l6.185 1.605a583.67 583.67 0 0 1-1.986 7.475l-6.164-1.69zm-41.361-4.61l2.122-6.04c2.348.828 4.746 1.65 7.197 2.468l-2.018 6.075c-2.486-.829-4.92-1.663-7.301-2.503zm146.847 6.627a52.694 52.694 0 0 0 5.567-4.605l4.396 4.645a58.957 58.957 0 0 1-6.243 5.163l-3.72-5.203zm-161.318-12.038l2.355-5.951c2.305.914 4.668 1.824 7.09 2.729l-2.233 6a384.907 384.907 0 0 1-7.212-2.778zm-14.248-6.037l2.631-5.834a308.455 308.455 0 0 0 6.948 3.04l-2.488 5.897a306.728 306.728 0 0 1-7.091-3.103zm186.02 8.144a55.82 55.82 0 0 0 4.147-5.95l5.461 3.321a62.473 62.473 0 0 1-4.62 6.631l-4.987-4.002zm-199.963-14.936l2.966-5.67a251.116 251.116 0 0 0 6.751 3.41l-2.79 5.76a247.755 247.755 0 0 1-6.927-3.5zm87.849 8.046c.59-2.419 1.176-4.9 1.755-7.438l6.228 1.426c-.586 2.57-1.18 5.08-1.777 7.53l-6.206-1.518zM279.198 177.69l3.375-5.437a194.114 194.114 0 0 0 6.473 3.859l-3.16 5.565a196.358 196.358 0 0 1-6.688-3.987zm-12.865-8.868l3.883-5.086a144.986 144.986 0 0 0 6.067 4.402l-3.616 5.279a152.848 152.848 0 0 1-6.334-4.595zm117.623 9.729c.523-2.454 1.034-4.95 1.53-7.483h.002l6.268 1.235a496.413 496.413 0 0 1-1.552 7.581l-6.248-1.333zm-129.492-20.04l4.504-4.545a106.873 106.873 0 0 0 5.454 5.056l-4.177 4.845a113.721 113.721 0 0 1-5.78-5.357zM386.9 163.56c.445-2.48.874-4.99 1.283-7.524l6.307 1.024a455.7 455.7 0 0 1-1.303 7.632l-6.287-1.132zm-142.707-17.138l5.223-3.689a78.385 78.385 0 0 0 4.517 5.809l-4.855 4.163a84.521 84.521 0 0 1-4.885-6.283zm-7.708-14.056l5.926-2.392a59.53 59.53 0 0 0 3.123 6.564l-5.591 3.099a65.981 65.981 0 0 1-3.458-7.271zm152.849 16.129a397.33 397.33 0 0 0 1.007-7.56l6.34.783c-.317 2.577-.659 5.14-1.022 7.683l-6.325-.906zm-156.801-31.804l6.35-.696a51.757 51.757 0 0 0 1.282 7.103l-6.193 1.578a58.104 58.104 0 0 1-1.44-7.985zm158.661 16.67c.257-2.523.488-5.055.689-7.59v-.002l6.368.506a333.637 333.637 0 0 1-.702 7.736l-6.355-.65zm-68.753-11.171l.89-6.34c.134.02.267.033.401.042 1.502.105 3.065-.376 4.574-1.416l3.634 5.265c-2.455 1.704-5.455 2.76-8.655 2.538-.28-.02-.563-.05-.844-.09zm-13.1-11.969l5.81-2.664c1.14 2.497 2.362 4.314 3.542 5.58l-4.672 4.369c-1.75-1.882-3.312-4.29-4.68-7.285zm-77.004-4.01c.135-1.932.361-3.83.664-5.688l6.305 1.032a56.037 56.037 0 0 0-.702 7.221l-6.385-.194c.024-.796.064-1.587.118-2.37zm160.37 4.373l6.385.177c-.072 2.587-.18 5.176-.321 7.764l-6.38-.347c.14-2.534.244-5.067.315-7.594zm-60.55-.691c.38-.777.678-1.59.88-2.4.22-.899.37-1.874.442-2.919.019-.263.033-.533.041-.805l6.385.2c-.01.353-.028.702-.053 1.051a23.715 23.715 0 0 1-.614 4.006 18.403 18.403 0 0 1-1.347 3.687l-5.734-2.82zm-27.21-15.213l6.302-1.05c.444 2.673.962 5.064 1.537 7.19l-6.167 1.677c-.638-2.358-1.199-4.956-1.672-7.817zm-70.163-2.022a74.941 74.941 0 0 1 2.65-7.573l5.909 2.434a68.364 68.364 0 0 0-2.423 6.922v.001l-6.136-1.784zm157.896 2.759l6.385-.217c.085 2.586.13 5.182.132 7.785l-6.389.01a234.748 234.748 0 0 0-.128-7.578zm-61.863-5.416l5.98-2.255c.995 2.649 1.773 5.275 2.306 7.841l-6.256 1.305c-.457-2.2-1.14-4.519-2.03-6.89zm-27.418-10.976l6.382-.289c.12 2.666.295 5.163.518 7.499l-6.36.613a155.333 155.333 0 0 1-.54-7.823zm-62.577-1.17a92.316 92.316 0 0 1 4.01-6.872l5.373 3.464a85.694 85.694 0 0 0-3.734 6.394l-5.65-2.987zm150.807 2.475l6.351-.697c.28 2.574.508 5.17.688 7.78l-6.373.444c-.174-2.53-.396-5.042-.666-7.527zm-67.505-3.34l5.34-3.515a78.05 78.05 0 0 1 4.046 6.912l-5.672 2.949a72.123 72.123 0 0 0-3.714-6.345zm-74.74-12.506a101.438 101.438 0 0 1 2.952-3.694 64.73 64.73 0 0 1 2.16-2.446l4.675 4.359a60.688 60.688 0 0 0-1.946 2.208 93.982 93.982 0 0 0-2.761 3.455l-5.08-3.882zm53.91-1.044l6.388.168a242.04 242.04 0 0 0-.085 7.576l-6.388.037c-.013-2.48.015-5.073.085-7.781zm6.303 7.744v0zm5.298-5.644l4.542-4.504a79.376 79.376 0 0 1 5.327 5.977l-4.974 4.022a72.617 72.617 0 0 0-4.895-5.495zm74.435-.094l6.257-1.289c.521 2.543.98 5.117 1.38 7.72l-6.315.975a153.033 153.033 0 0 0-1.322-7.406zM260.44 52.787c2.258-1.806 4.56-3.32 6.892-4.551l2.98 5.662c-1.96 1.036-3.926 2.322-5.889 3.893l-3.983-5.005zm43.125 3.634l.466-.762-.388-.026.017-.24c.185-2.65.433-5.176.738-7.587l6.339.805c-.186 1.47-.35 2.99-.492 4.563a64.666 64.666 0 0 1 3.248 2.468l-4.014 4.982a56.11 56.11 0 0 0-5.914-4.203zm-13.092-5.381v-.002l1.294-6.27a43.32 43.32 0 0 1 7.885 2.46l-2.455 5.912a36.905 36.905 0 0 0-6.724-2.1zm-15.357-5.876a34.98 34.98 0 0 1 8.33-1.179l.129 6.401a28.621 28.621 0 0 0-6.815.965l-1.644-6.187zm110.38 5.807l6.061-2.022c.821 2.474 1.568 4.995 2.243 7.555l-6.178 1.636a118.07 118.07 0 0 0-2.126-7.169zm-73.567-9.706h.002-.002zm-6.262-1.266a85.509 85.509 0 0 1 1.924-7.738l6.116 1.848a79.137 79.137 0 0 0-1.778 7.156l-6.262-1.266zm74.144-2.76l5.69-2.908a99.467 99.467 0 0 1 3.308 7.206l-5.904 2.448a93.856 93.856 0 0 0-3.094-6.746zm-63.605-9.961l-5.841-2.588c1.176-2.668 2.477-5.064 3.883-7.21l5.34 3.514c-1.2 1.831-2.335 3.914-3.38 6.284h-.002zm55.778-2.526l5.065-3.905a82.635 82.635 0 0 1 4.544 6.556l-5.415 3.4a76.166 76.166 0 0 0-4.194-6.05zm-10.067-10.626l4.139-4.877a74.928 74.928 0 0 1 5.805 5.512l-4.636 4.408a68.64 68.64 0 0 0-5.308-5.043zm-42.402-3.111a32.726 32.726 0 0 1 6.749-5.115l3.151 5.568a26.317 26.317 0 0 0-5.432 4.124l-4.468-4.577zm30.025-2.318h-.002l1.202-6.29a43.173 43.173 0 0 1 7.944 2.32l-2.388 5.94a36.724 36.724 0 0 0-6.756-1.97zm-15.4-5.967a35.53 35.53 0 0 1 8.338-1.075l.075 6.404c-2.246.026-4.55.291-6.836.875L334.14 2.73z"/>
        <path fill="#333" stroke="#FFF" stroke-width="3" d="M74.942 459.468l1.447-6.237a42.434 42.434 0 0 0 7.044 1.053l-.386 6.39-.418-.027a48.93 48.93 0 0 1-7.687-1.18zm15.457-5.479a28.204 28.204 0 0 0 6.616-1.852l2.46 5.908a34.474 34.474 0 0 1-8.11 2.272l-.966-6.328zm-30.506-.05l2.812-5.75a74.18 74.18 0 0 0 6.745 2.925v.001l-2.234 5.999a81.002 81.002 0 0 1-7.323-3.174zM48.6 447.486a40.425 40.425 0 0 0-2.144-1.293l3.123-5.585c.835.468 1.664.967 2.485 1.498 1.276.823 2.653 1.684 4.115 2.548l-3.246 5.514a122.676 122.676 0 0 1-4.333-2.682zM103 448.73c1.76-1.295 3.493-2.854 5.183-4.722v-.002l4.732 4.302c-1.961 2.168-4.013 4.022-6.134 5.583l-3.781-5.161zM2.419 436.26c1.428-.376 4.2-1.034 7.882-1.566l.908 6.337c-3.39.489-5.933 1.096-7.167 1.421l-1.622-6.191zm30.614 5.097l1.236-6.283c2.59.511 5.22 1.21 7.844 2.147l-2.146 6.031a48.341 48.341 0 0 0-6.934-1.895zm-14.781-7.41a73.234 73.234 0 0 1 8.017.087l-.43 6.389a66.515 66.515 0 0 0-7.313-.078l-.274-6.398zm94.286 4.374a61.87 61.87 0 0 0 3.608-6.336l5.718 2.853a67.88 67.88 0 0 1-3.984 6.992l-5.342-3.51zm6.58-13.096c.852-2.19 1.667-4.534 2.444-7.037v-.001l6.102 1.898a113.345 113.345 0 0 1-2.594 7.465l-5.952-2.325zm4.454-14.26c.429-1.724.842-3.512 1.237-5.363.109-.514.228-1.165.358-1.911l6.295 1.089a58.025 58.025 0 0 1-.406 2.155 166.697 166.697 0 0 1-1.286 5.58l-6.198-1.55zm2.91-14.916c.471-2.479 1.05-5.143 1.806-7.778l6.14 1.765c-.679 2.368-1.221 4.851-1.67 7.21l-6.276-1.197zm43.787-1.295l2.886-5.713c2.167 1.1 4.344 1.94 6.394 2.373l-1.324 6.263c-2.766-.588-5.427-1.642-7.956-2.923zm15.356-3.377c1.723-.483 3.362-1.398 5.017-3.092l4.577 4.467c-2.355 2.432-5.073 4.024-7.897 4.797l-1.697-6.172zm-28.59-5.618l4.023-4.976c1.78 1.448 3.788 3.02 5.923 4.506l-3.648 5.258c-2.325-1.62-4.452-3.289-6.298-4.788zm-25.781-5.25c1.444-2.79 3.289-5.33 5.918-7.066l3.494 5.357c-1.298.839-2.611 2.445-3.736 4.645l-5.676-2.936zm63.114 2.278c.913-1.848 1.775-4.053 2.555-6.656l6.118 1.842c-.867 2.891-1.85 5.43-2.949 7.653l-5.724-2.839zm-48.896-4.637l1.552-6.21c2.53.637 5.128 1.937 7.897 3.919l-3.717 5.208c-2.298-1.65-4.222-2.54-5.732-2.917zm53.177-9.164c.433-2.253.819-4.705 1.148-7.372l6.34.785a117.7 117.7 0 0 1-1.215 7.8l-6.273-1.213zm1.877-14.859l.054-.755c.15-2.157.272-4.42.36-6.797l6.384.235a213.13 213.13 0 0 1-.37 7.007c-.019.262-.037.523-.057.783l-6.371-.473zm.54-22.743l6.388-.11c.044 2.689.056 5.274.038 7.761l-6.389-.047c.02-2.432.007-4.965-.037-7.604zm0-.001v.001-.001zm-.549-15.236l6.38-.345c.142 2.656.258 5.233.35 7.728l-6.385.237c-.09-2.459-.203-4.998-.345-7.62zm17.675.787l.631-6.372c2.467.247 4.987.463 7.551.645h.002l-.454 6.386a274.053 274.053 0 0 1-7.73-.659zm15.743-5.303c2.492.103 5.016.168 7.562.19l-.058 6.402c-2.618-.024-5.21-.09-7.767-.194l.263-6.398zm-31.125 3.362l.963-6.33c.991.15 1.999.3 3.02.445l-4.203-1.587a347.23 347.23 0 0 0 2.605-7.167l6.027 2.124a364.952 364.952 0 0 1-2.503 6.897c.847.115 1.703.227 2.568.336l-.8 6.353a306.346 306.346 0 0 1-7.677-1.071zm46.244-3.234c2.502-.063 5.019-.172 7.54-.332h.001l.4 6.39c-2.605.165-5.2.277-7.78.342l-.161-6.4zm-61.504.511l1.28-6.273c2.321.475 4.814.954 7.456 1.427h-.002l-1.12 6.302a303.65 303.65 0 0 1-7.614-1.456zm76.556-1.47c1.483-.154 2.966-.327 4.448-.521.1-.019.316-.059.654-.125.488-.098 1.215-.246 2.153-.45v.001l1.352 6.257c-1.959.424-3.063.624-3.096.63l-.07.014-.082.01c-1.567.205-3.134.39-4.7.554l-.659-6.37zm-91.676-2.048l1.63-6.19c1.917.506 4.396 1.133 7.356 1.82l-1.441 6.237a250.773 250.773 0 0 1-7.545-1.867zm-14.92-3.928l1.81-6.141c2.289.677 4.7 1.32 7.239 1.924h.002l-1.48 6.229a145.96 145.96 0 0 1-7.571-2.012zm121.215 3.116a218.284 218.284 0 0 0 7.3-2.033l1.813 6.14c-2.748.816-5.274 1.509-7.513 2.092l-1.6-6.199zm-136.01-8.622l2.694-5.807a89.677 89.677 0 0 0 6.835 2.833v.002l-2.209 6.007a96.526 96.526 0 0 1-7.32-3.035zm38.7 5.063h.001zm111.836-.753a218.837 218.837 0 0 0 7.139-2.526v.002l2.23 5.997c-2.53.946-4.99 1.81-7.35 2.6l-2.019-6.073zM128.997 290.97l3.998-4.995a53.47 53.47 0 0 0 5.937 4.115l-3.286 5.49a59.74 59.74 0 0 1-6.65-4.61zm178.428 7.352a185.405 185.405 0 0 0 6.908-3.05l2.694 5.805a189.26 189.26 0 0 1-7.148 3.154l-2.454-5.909zm-168.493-8.232l.001-.002v.002zm68.717 3.042a368.816 368.816 0 0 0 2.303-7.267l6.108 1.871c-.79 2.595-1.58 5.071-2.343 7.396l-6.068-2zm-89.417-14.617l5.577-3.125a33.019 33.019 0 0 0 4.04 5.69l-4.798 4.228a39.334 39.334 0 0 1-4.82-6.793zm202.857 13.42a148.136 148.136 0 0 0 6.573-3.652l3.24 5.516c-2.269 1.34-4.56 2.609-6.856 3.81l-2.957-5.675zm12.924-7.649a113.3 113.3 0 0 0 6.062-4.361l3.899 5.07a118.244 118.244 0 0 1-6.407 4.61l-3.554-5.319zm-121.918-5.731a310.05 310.05 0 0 0 1.968-7.351l6.19 1.579a311.428 311.428 0 0 1-2.009 7.504l-6.149-1.732zm-98.452-16.052l6.378-.357c.13 2.312.495 4.603 1.136 6.857v.002l-6.143 1.756a37.772 37.772 0 0 1-1.37-8.258zm232.135 12.664a83.465 83.465 0 0 0 5.264-5.18l.002.001 4.675 4.36a90.022 90.022 0 0 1-5.665 5.575l-4.276-4.756zm-129.946-11.352c.552-2.458 1.07-4.94 1.541-7.426l6.277 1.195a235.13 235.13 0 0 1-1.585 7.633l-6.233-1.402zm-101.84-9.582a53.308 53.308 0 0 1 1.73-7.983l6.124 1.818a46.92 46.92 0 0 0-1.524 7.02l-6.33-.855zm241.774 10.137a64.075 64.075 0 0 0 4.068-6.06l5.5 3.255a70.287 70.287 0 0 1-4.476 6.67l-5.092-3.865zm-137.12-15.438c.376-2.512.693-5.009.942-7.471l6.356.643c-.26 2.576-.591 5.172-.981 7.776l-6.318-.948zm-100.144-10.266a76.737 76.737 0 0 1 3.593-7.161l5.555 3.163a70.538 70.538 0 0 0-3.296 6.563l-5.852-2.565zm54.511 4.395c-2.656-.72-4.974-1.756-6.944-3.084l3.569-5.313c1.316.888 2.972 1.654 5.041 2.215.307.082.603.155.884.215l-1.33 6.261a21.83 21.83 0 0 1-1.22-.294zm7.511-6.433c.999-.654 2.05-2.035 2.92-4.628l6.055 2.043c-1.125 3.34-2.79 6.14-5.44 7.918l-3.535-5.333zm182.607 15.204a54.405 54.405 0 0 0 2.418-6.815l6.15 1.733a60.575 60.575 0 0 1-2.705 7.618l-5.863-2.536zm-204.876-27.787l6.386.16c-.055 2.256.326 4.288 1.143 6.032l-5.784 2.72c-1.305-2.789-1.823-5.84-1.745-8.912zm-31.896.713a85.916 85.916 0 0 1 2.202-3.006 37.085 37.085 0 0 1 2.931-3.381l4.559 4.484c-.843.86-1.652 1.79-2.425 2.799a77.283 77.283 0 0 0-2.036 2.78l-5.23-3.676zm93.775 1.806l6.383-.264a98.883 98.883 0 0 1-.01 7.942l-6.385-.253a92.13 92.13 0 0 0 .012-7.425zm-39.608-5.118l4.424-4.62c2.302 2.216 4.083 4.806 4.98 7.737l-6.11 1.872c-.495-1.635-1.595-3.355-3.294-4.989zm187.292 16.045c.623-1.822 1.441-4.265 2.4-7.25l6.08 1.958a421.493 421.493 0 0 1-2.435 7.365l-6.045-2.073zm-187.293-16.045v.002-.002zm-42.482-8.348a36.363 36.363 0 0 1 7.583-3.59l2.052 6.064a29.9 29.9 0 0 0-6.254 2.956l-3.381-5.43zm21.794 2.477c.196-.579.408-1.156.636-1.73a36.505 36.505 0 0 0-5.982.2l-.74-6.358a42.87 42.87 0 0 1 8.267-.158l-.262 3.453a39.7 39.7 0 0 1 1.648-2.983l5.454 3.333c-1.25 2.048-2.257 4.185-2.97 6.296l-6.05-2.053zm8.65-.47l1.67-6.18c2.769.75 5.385 1.757 7.772 2.985l-2.92 5.696c-1.96-1.01-4.165-1.862-6.522-2.5zm49.345-2.794l6.07-1.994c.826 2.525 1.435 5.196 1.863 7.981l-6.313.978c-.384-2.492-.921-4.827-1.62-6.965zm154.66 10.634c.69-2.268 1.418-4.718 2.17-7.33l6.138 1.776c-.76 2.642-1.496 5.12-2.195 7.419l-6.113-1.865zm52.695 4.383l-.531-.104 1.244-6.282c.176.036.353.07.526.106 0-.002.119.023.41.073.292.05.735.123 1.315.206 1.157.167 2.859.379 4.982.548l-.51 6.383c-4.547-.364-7.336-.909-7.436-.93zm15.362-5.159c2.293.003 4.785-.079 7.41-.288l.504 6.382a99.047 99.047 0 0 1-7.921.31l.007-6.404zm-30.954 1.927l1.35-6.257c2.456.533 4.947 1.06 7.47 1.583v.001l-1.296 6.27a801.134 801.134 0 0 1-7.524-1.597zm45.701-3.116a75.616 75.616 0 0 0 7.194-1.561v.002l1.655 6.182a83.269 83.269 0 0 1-7.796 1.692l-1.053-6.315zm-60.713-.28l1.47-6.23c2.443.577 4.921 1.15 7.436 1.72l-1.407 6.244a788.92 788.92 0 0 1-7.499-1.733zM168.41 201.37c1.905-2.058 4.019-3.92 6.303-5.497l3.623 5.271c-1.865 1.288-3.636 2.842-5.243 4.578l-4.683-4.353zm211.229 15.633l1.6-6.198c2.426.628 4.892 1.252 7.395 1.872l-1.531 6.215a685.68 685.68 0 0 1-7.464-1.889zM210.65 201.095l4.02-4.976c2.273 1.843 4.17 4.06 5.717 6.533l-5.415 3.4c-1.212-1.94-2.64-3.59-4.322-4.957zm258.796 16.047a60.538 60.538 0 0 0 6.615-3.04v-.002l3.012 5.647a66.752 66.752 0 0 1-7.313 3.363l-2.314-5.968zm-104.674-4.18l1.75-6.158c2.406.686 4.855 1.368 7.346 2.044l-1.675 6.18a616.385 616.385 0 0 1-7.421-2.067zm-14.767-4.432l1.924-6.108c2.38.752 4.806 1.5 7.279 2.243l-1.834 6.133c-2.502-.75-4.96-1.507-7.37-2.268zm38.628 4.147v-.002.002zM182.33 192.008a25.357 25.357 0 0 1 3.376-.878 62.371 62.371 0 0 1 4.811-.712l.675 6.368a55.749 55.749 0 0 0-4.319.639c-.842.156-1.686.376-2.525.657l-2.018-6.074zm15.946 4.612h.001l.464-6.386c3.012.218 5.783.777 8.309 1.663l-2.111 6.044c-1.944-.682-4.15-1.139-6.663-1.321zm178.452 11.635a532.644 532.644 0 0 0 1.965-7.39l6.185 1.605a583.67 583.67 0 0 1-1.986 7.475l-6.164-1.69zm-41.361-4.61l2.122-6.04c2.348.828 4.746 1.65 7.197 2.468l-2.018 6.075c-2.486-.829-4.92-1.663-7.301-2.503zm146.847 6.627a52.694 52.694 0 0 0 5.567-4.605l4.396 4.645a58.957 58.957 0 0 1-6.243 5.163l-3.72-5.203zm-161.318-12.038l2.355-5.951c2.305.914 4.668 1.824 7.09 2.729l-2.233 6a384.907 384.907 0 0 1-7.212-2.778zm-14.248-6.037l2.631-5.834a308.455 308.455 0 0 0 6.948 3.04l-2.488 5.897a306.728 306.728 0 0 1-7.091-3.103zm186.02 8.144a55.82 55.82 0 0 0 4.147-5.95l5.461 3.321a62.473 62.473 0 0 1-4.62 6.631l-4.987-4.002zm-199.963-14.936l2.966-5.67a251.116 251.116 0 0 0 6.751 3.41l-2.79 5.76a247.755 247.755 0 0 1-6.927-3.5zm87.849 8.046c.59-2.419 1.176-4.9 1.755-7.438l6.228 1.426c-.586 2.57-1.18 5.08-1.777 7.53l-6.206-1.518zM279.198 177.69l3.375-5.437a194.114 194.114 0 0 0 6.473 3.859l-3.16 5.565a196.358 196.358 0 0 1-6.688-3.987zm-12.865-8.868l3.883-5.086a144.986 144.986 0 0 0 6.067 4.402l-3.616 5.279a152.848 152.848 0 0 1-6.334-4.595zm117.623 9.729c.523-2.454 1.034-4.95 1.53-7.483h.002l6.268 1.235a496.413 496.413 0 0 1-1.552 7.581l-6.248-1.333zm-129.492-20.04l4.504-4.545a106.873 106.873 0 0 0 5.454 5.056l-4.177 4.845a113.721 113.721 0 0 1-5.78-5.357zM386.9 163.56c.445-2.48.874-4.99 1.283-7.524l6.307 1.024a455.7 455.7 0 0 1-1.303 7.632l-6.287-1.132zm-142.707-17.138l5.223-3.689a78.385 78.385 0 0 0 4.517 5.809l-4.855 4.163a84.521 84.521 0 0 1-4.885-6.283zm-7.708-14.056l5.926-2.392a59.53 59.53 0 0 0 3.123 6.564l-5.591 3.099a65.981 65.981 0 0 1-3.458-7.271zm152.849 16.129a397.33 397.33 0 0 0 1.007-7.56l6.34.783c-.317 2.577-.659 5.14-1.022 7.683l-6.325-.906zm-156.801-31.804l6.35-.696a51.757 51.757 0 0 0 1.282 7.103l-6.193 1.578a58.104 58.104 0 0 1-1.44-7.985zm158.661 16.67c.257-2.523.488-5.055.689-7.59v-.002l6.368.506a333.637 333.637 0 0 1-.702 7.736l-6.355-.65zm-68.753-11.171l.89-6.34c.134.02.267.033.401.042 1.502.105 3.065-.376 4.574-1.416l3.634 5.265c-2.455 1.704-5.455 2.76-8.655 2.538-.28-.02-.563-.05-.844-.09zm-13.1-11.969l5.81-2.664c1.14 2.497 2.362 4.314 3.542 5.58l-4.672 4.369c-1.75-1.882-3.312-4.29-4.68-7.285zm-77.004-4.01c.135-1.932.361-3.83.664-5.688l6.305 1.032a56.037 56.037 0 0 0-.702 7.221l-6.385-.194c.024-.796.064-1.587.118-2.37zm160.37 4.373l6.385.177c-.072 2.587-.18 5.176-.321 7.764l-6.38-.347c.14-2.534.244-5.067.315-7.594zm-60.55-.691c.38-.777.678-1.59.88-2.4.22-.899.37-1.874.442-2.919.019-.263.033-.533.041-.805l6.385.2c-.01.353-.028.702-.053 1.051a23.715 23.715 0 0 1-.614 4.006 18.403 18.403 0 0 1-1.347 3.687l-5.734-2.82zm-27.21-15.213l6.302-1.05c.444 2.673.962 5.064 1.537 7.19l-6.167 1.677c-.638-2.358-1.199-4.956-1.672-7.817zm-70.163-2.022a74.941 74.941 0 0 1 2.65-7.573l5.909 2.434a68.364 68.364 0 0 0-2.423 6.922v.001l-6.136-1.784zm157.896 2.759l6.385-.217c.085 2.586.13 5.182.132 7.785l-6.389.01a234.748 234.748 0 0 0-.128-7.578zm-61.863-5.416l5.98-2.255c.995 2.649 1.773 5.275 2.306 7.841l-6.256 1.305c-.457-2.2-1.14-4.519-2.03-6.89zm-27.418-10.976l6.382-.289c.12 2.666.295 5.163.518 7.499l-6.36.613a155.333 155.333 0 0 1-.54-7.823zm-62.577-1.17a92.316 92.316 0 0 1 4.01-6.872l5.373 3.464a85.694 85.694 0 0 0-3.734 6.394l-5.65-2.987zm150.807 2.475l6.351-.697c.28 2.574.508 5.17.688 7.78l-6.373.444c-.174-2.53-.396-5.042-.666-7.527zm-67.505-3.34l5.34-3.515a78.05 78.05 0 0 1 4.046 6.912l-5.672 2.949a72.123 72.123 0 0 0-3.714-6.345zm-74.74-12.506a101.438 101.438 0 0 1 2.952-3.694 64.73 64.73 0 0 1 2.16-2.446l4.675 4.359a60.688 60.688 0 0 0-1.946 2.208 93.982 93.982 0 0 0-2.761 3.455l-5.08-3.882zm53.91-1.044l6.388.168a242.04 242.04 0 0 0-.085 7.576l-6.388.037c-.013-2.48.015-5.073.085-7.781zm6.303 7.744v0zm5.298-5.644l4.542-4.504a79.376 79.376 0 0 1 5.327 5.977l-4.974 4.022a72.617 72.617 0 0 0-4.895-5.495zm74.435-.094l6.257-1.289c.521 2.543.98 5.117 1.38 7.72l-6.315.975a153.033 153.033 0 0 0-1.322-7.406zM260.44 52.787c2.258-1.806 4.56-3.32 6.892-4.551l2.98 5.662c-1.96 1.036-3.926 2.322-5.889 3.893l-3.983-5.005zm43.125 3.634l.466-.762-.388-.026.017-.24c.185-2.65.433-5.176.738-7.587l6.339.805c-.186 1.47-.35 2.99-.492 4.563a64.666 64.666 0 0 1 3.248 2.468l-4.014 4.982a56.11 56.11 0 0 0-5.914-4.203zm-13.092-5.381v-.002l1.294-6.27a43.32 43.32 0 0 1 7.885 2.46l-2.455 5.912a36.905 36.905 0 0 0-6.724-2.1zm-15.357-5.876a34.98 34.98 0 0 1 8.33-1.179l.129 6.401a28.621 28.621 0 0 0-6.815.965l-1.644-6.187zm110.38 5.807l6.061-2.022c.821 2.474 1.568 4.995 2.243 7.555l-6.178 1.636a118.07 118.07 0 0 0-2.126-7.169zm-73.567-9.706h.002-.002zm-6.262-1.266a85.509 85.509 0 0 1 1.924-7.738l6.116 1.848a79.137 79.137 0 0 0-1.778 7.156l-6.262-1.266zm74.144-2.76l5.69-2.908a99.467 99.467 0 0 1 3.308 7.206l-5.904 2.448a93.856 93.856 0 0 0-3.094-6.746zm-63.605-9.961l-5.841-2.588c1.176-2.668 2.477-5.064 3.883-7.21l5.34 3.514c-1.2 1.831-2.335 3.914-3.38 6.284h-.002zm55.778-2.526l5.065-3.905a82.635 82.635 0 0 1 4.544 6.556l-5.415 3.4a76.166 76.166 0 0 0-4.194-6.05zm-10.067-10.626l4.139-4.877a74.928 74.928 0 0 1 5.805 5.512l-4.636 4.408a68.64 68.64 0 0 0-5.308-5.043zm-42.402-3.111a32.726 32.726 0 0 1 6.749-5.115l3.151 5.568a26.317 26.317 0 0 0-5.432 4.124l-4.468-4.577zm30.025-2.318h-.002l1.202-6.29a43.173 43.173 0 0 1 7.944 2.32l-2.388 5.94a36.724 36.724 0 0 0-6.756-1.97zm-15.4-5.967a35.53 35.53 0 0 1 8.338-1.075l.075 6.404c-2.246.026-4.55.291-6.836.875L334.14 2.73z"/>
        <path fill="#FCEAE2" d="M445.276 168.073l36.323 20.74 129.06-49.117-165.383 28.377"/>
        <path fill="#EED7CE" d="M517.238 198.833l-33.286 17.283 16.699-22.891 16.587 5.608"/>
        <path fill="#FCEAE2" d="M500.579 193.372l109.08-54.676-75.555 72.907-33.525-18.231"/>
        <path fill="#F8DED2" d="M480.883 188.281l.973.263 2.358 28.523 16.956-23.322 109.488-55.049-129.775 49.585"/>
    </g>
</svg>
